<?xml version="1.0" encoding="utf-8"?>
<!-- Generator: Adobe Illustrator 24.0.1, SVG Export Plug-In . SVG Version: 6.00 Build 0)  -->
<svg version="1.1" id="Livello_1" xmlns="http://www.w3.org/2000/svg" xmlns:xlink="http://www.w3.org/1999/xlink" x="0px" y="0px"
	 viewBox="0 0 53.6 51.9" style="enable-background:new 0 0 53.6 51.9;" xml:space="preserve">
<style type="text/css">
	.st0{fill:#90EFDB;}
</style>
<g>
	<path class="st0" d="M28,45.4c-0.8,0-1.5,0-2.3,0c-0.7-0.1-1.3-0.1-2-0.2c-4.1-0.7-7.6-2.4-10.5-5.3C8.8,35.5,6.9,30.1,7.4,24
		c0.4-4.2,2-7.9,4.8-11c3.7-4.1,8.3-6.3,13.8-6.5c3.8-0.2,7.4,0.7,10.7,2.7c5.1,3.1,8.2,7.5,9.2,13.4c0.1,0.7,0.2,1.5,0.3,2.2
		c0,0.8,0,1.5,0,2.3c0,0.3-0.1,0.5-0.1,0.8c-0.5,4.2-2.1,7.9-4.9,11c-3,3.3-6.7,5.4-11.1,6.2C29.4,45.3,28.7,45.3,28,45.4z M26.8,43
		c9.4,0,17-7.7,17-17c0-9.4-7.7-17.1-17.1-17c-9.4,0-17,7.7-17,17C9.8,35.3,17.4,43,26.8,43z"/>
	<path class="st0" d="M19.6,27.2c0-0.8,0-1.6,0-2.4c-0.4,0-0.7,0-1.1,0c-0.8,0-1.3-0.5-1.3-1.2c0-0.7,0.5-1.2,1.3-1.2
		c0.5,0,0.9,0,1.4,0c0.3,0,0.4-0.1,0.4-0.3c0.7-1.8,1.8-3.2,3.3-4.3c2.6-1.9,6.1-1.9,8.7-0.1c0.6,0.4,0.8,1.1,0.4,1.7
		c-0.4,0.6-1.1,0.7-1.7,0.4c-0.8-0.5-1.6-0.8-2.5-0.9c-1.7-0.2-3.1,0.4-4.3,1.6c-0.6,0.6-1.1,1.2-1.4,2c0.2,0,0.3,0,0.4,0
		c1.6,0,3.2,0,4.8,0c0.7,0,1.2,0.5,1.2,1.1c0.1,0.6-0.4,1.2-1,1.3c-0.2,0-0.3,0-0.5,0c-1.8,0-3.5,0-5.3,0c-0.1,0-0.3,0-0.5,0
		c0,0.8,0,1.6,0,2.4c0.2,0,0.3,0,0.4,0c1.4,0,2.9,0,4.3,0c0.5,0,0.9,0.2,1.1,0.7c0.2,0.4,0.1,0.9-0.2,1.3c-0.3,0.3-0.6,0.5-1,0.5
		c-1.2,0-2.3,0-3.5,0c-0.1,0-0.2,0-0.4,0c0.4,0.8,0.9,1.5,1.5,2.1c1.5,1.4,3.2,1.9,5.2,1.4c0.5-0.1,1-0.4,1.5-0.7
		c0.7-0.4,1.4-0.3,1.8,0.4c0.4,0.6,0.1,1.3-0.5,1.7c-3.5,2.2-7.8,1.4-10.5-1.9c-0.6-0.8-1.1-1.7-1.5-2.6c-0.1-0.2-0.2-0.3-0.5-0.3
		c-0.5,0-1,0-1.5,0c-0.7,0-1.2-0.5-1.2-1.2c0-0.7,0.5-1.2,1.3-1.2C18.7,27.2,19.2,27.2,19.6,27.2z"/>
</g>
</svg>
