<?xml version="1.0" encoding="utf-8"?>
<!-- Generator: Adobe Illustrator 24.0.1, SVG Export Plug-In . SVG Version: 6.00 Build 0)  -->
<svg version="1.1" id="Livello_1" xmlns="http://www.w3.org/2000/svg" xmlns:xlink="http://www.w3.org/1999/xlink" x="0px" y="0px"
	 viewBox="0 0 53.6 51.9" style="enable-background:new 0 0 53.6 51.9;" xml:space="preserve">
<style type="text/css">
	.st0{fill:#90EFDB;}
</style>
<g>
	<path class="st0" d="M40,6c0.5,0.2,1.1,0.4,1.4,0.9C41.8,7.4,42,7.9,42,8.4c0,2.7,0,5.4,0,8.1c0,0.7-0.5,1.1-1,0.9
		c-0.3-0.1-0.5-0.4-0.5-0.9c0-1.9,0-3.8,0-5.7c0-0.8,0-1.5,0-2.3c0-0.6-0.3-0.9-0.9-0.9c-9.2,0-18.4,0-27.6,0
		c-0.7,0-0.9,0.3-0.9,1.1c0,9.7,0,19.5,0,29.2c0,1.7,0,3.3,0,5c0,0.8,0.3,1,1,1c9.2,0,18.3,0,27.5,0c0.8,0,1-0.3,1-1
		c0-1.8,0-3.5,0-5.3c0-0.7,0.4-1,1-0.9c0.4,0.1,0.5,0.4,0.5,0.9c0,1.4,0,2.9,0,4.3c0,0.4,0,0.8,0,1.2c0,1.3-1,2.3-2.3,2.3
		c-0.1,0-0.2,0-0.3,0c-9.2,0-18.3,0-27.5,0c-1,0-1.9-0.4-2.3-1.3c-0.2-0.4-0.2-0.8-0.2-1.3c0-8.5,0-16.9,0-25.4c0-2.8,0-5.6,0-8.5
		c0-1.7,0.3-2.3,1.9-2.9C20.9,6,30.5,6,40,6z"/>
	<path class="st0" d="M48.7,19.3c-0.6,1.7-1.6,3.1-2.5,4.7c-2.5,4.3-5,8.6-7.5,12.9c-0.2,0.3-0.4,0.5-0.7,0.7
		c-1.5,1.1-3,2.2-4.5,3.3c-0.2,0.2-0.5,0.3-0.8,0.3c-0.4,0-0.7-0.4-0.6-0.9c0.1-0.9,0.2-1.7,0.3-2.6c0.1-1,0.2-2.1,0.4-3.1
		c0-0.3,0.1-0.6,0.3-0.9c3.1-5.5,6.3-10.9,9.4-16.4c1-1.6,2.7-2.2,4.3-1.4c0.9,0.4,1.5,1.2,1.7,2.2c0,0.1,0.1,0.2,0.1,0.2
		C48.7,18.7,48.7,19,48.7,19.3z M37.7,35.8c2.6-4.5,5.2-9,7.8-13.4c-1-0.6-1.9-1.1-2.9-1.7c-2.6,4.5-5.2,9-7.8,13.4
		C35.7,34.7,36.7,35.2,37.7,35.8z M43.3,19.3c1,0.6,2,1.1,2.9,1.7c0.3-0.5,0.5-0.9,0.8-1.4c0.4-0.8,0.1-1.8-0.6-2.2
		c-0.8-0.5-1.8-0.2-2.3,0.6C43.8,18.4,43.6,18.8,43.3,19.3z M34.3,35.6c-0.1,1.1-0.2,2.1-0.4,3.2c0.9-0.7,1.7-1.3,2.6-1.9
		C35.8,36.5,35.1,36.1,34.3,35.6z"/>
	<path class="st0" d="M25.7,10.2c3.9,0,7.1,3.2,7.1,7.1c0,3.9-3.2,7.1-7.1,7.1c-3.9,0-7.1-3.2-7-7.1C18.6,13.4,21.8,10.2,25.7,10.2z
		 M30.1,20.5c1.6-2,1.6-5.3-0.7-7.4c-2.2-2-5.5-1.9-7.6,0.2c-2.2,2.1-2,5.4-0.7,7c0.4-0.3,0.8-0.6,1.1-0.9c0.4-0.3,0.8-0.5,1.2-0.8
		c-0.6-0.8-0.6-1.7-0.5-2.6c0.2-1.3,1.4-2.3,2.7-2.3c1.4,0,2.5,1,2.7,2.3c0.1,0.9,0.1,1.8-0.5,2.6C28.8,19.1,29.5,19.7,30.1,20.5z
		 M22.4,21.6c2,1.6,4.9,1.4,6.6,0c-0.6-1.2-2-2-3.4-1.9C24.2,19.8,23.1,20.4,22.4,21.6z M24.4,16.7c0,0.8,0.3,1.2,0.8,1.4
		c0.5,0.2,0.9,0.1,1.3-0.3c0.5-0.5,0.4-1.1,0.3-1.7c-0.1-0.5-0.5-0.8-0.9-0.8C25,15.1,24.4,15.7,24.4,16.7z"/>
	<path class="st0" d="M24.4,28.3c-1.7,0-3.4,0-5.1,0c-0.1,0-0.2,0-0.3,0c-0.4,0-0.7-0.4-0.7-0.8c0-0.4,0.3-0.7,0.7-0.8
		c0.1,0,0.2,0,0.3,0c3.5,0,6.9,0,10.4,0c0,0,0.1,0,0.1,0c0.6,0,0.9,0.3,0.9,0.8c0,0.5-0.4,0.8-0.9,0.8c-0.4,0-0.7,0-1.1,0
		C27.2,28.3,25.8,28.3,24.4,28.3z"/>
	<path class="st0" d="M24.3,32.6c-1.7,0-3.4,0-5.1,0c-0.1,0-0.3,0-0.4,0c-0.4-0.1-0.7-0.4-0.7-0.8c0-0.4,0.3-0.7,0.7-0.8
		c0.1,0,0.3,0,0.4,0c3.4,0,6.9,0,10.3,0c0,0,0.1,0,0.1,0c0.6,0,1,0.3,1,0.8c0,0.5-0.4,0.8-1,0.8C27.8,32.6,26.1,32.6,24.3,32.6z"/>
	<path class="st0" d="M24.3,36.9c-1.7,0-3.4,0-5.1,0c-0.1,0-0.3,0-0.4,0c-0.4-0.1-0.7-0.4-0.7-0.8c0-0.4,0.3-0.7,0.7-0.8
		c0.1,0,0.3,0,0.4,0c3.4,0,6.9,0,10.3,0c0,0,0.1,0,0.1,0c0.6,0,1,0.3,1,0.8c0,0.5-0.4,0.8-1,0.8C27.8,36.9,26.1,36.9,24.3,36.9z"/>
	<path class="st0" d="M27.8,41.2c-0.6,0-1.3,0-1.9,0c-0.6,0-0.9-0.3-0.9-0.8c0-0.5,0.4-0.8,0.9-0.8c1.3,0,2.6,0,3.8,0
		c0.6,0,0.9,0.3,0.9,0.8c0,0.5-0.4,0.8-0.9,0.8C29,41.2,28.4,41.2,27.8,41.2z"/>
	<path class="st0" d="M16.4,27.6c0,0.4-0.3,0.8-0.8,0.8c-0.4,0-0.8-0.4-0.8-0.8c0-0.4,0.4-0.8,0.8-0.8C16,26.8,16.4,27.1,16.4,27.6z
		"/>
	<path class="st0" d="M15.6,31.1c0.4,0,0.8,0.3,0.8,0.7c0,0.4-0.3,0.8-0.7,0.8c-0.4,0-0.8-0.3-0.8-0.7
		C14.9,31.5,15.2,31.1,15.6,31.1z"/>
	<path class="st0" d="M15.6,36.9c-0.4,0-0.8-0.4-0.8-0.8c0-0.4,0.4-0.8,0.8-0.8c0.4,0,0.8,0.3,0.8,0.8C16.4,36.6,16,36.9,15.6,36.9z
		"/>
</g>
</svg>
